<?xml version="1.0" encoding="iso-8859-1"?>
<!-- Generator: Adobe Illustrator 19.0.0, SVG Export Plug-In . SVG Version: 6.00 Build 0)  -->
<svg version="1.1" id="Capa_1" xmlns="http://www.w3.org/2000/svg" xmlns:xlink="http://www.w3.org/1999/xlink" x="0px" y="0px"
	 viewBox="0 0 512 512" style="enable-background:new 0 0 512 512;" xml:space="preserve">
<path style="fill:#C5C9F7;" d="M271,15v362c0,8.399-6.599,15-15,15s-15-6.601-15-15V15c0-8.401,6.599-15,15-15S271,6.599,271,15z"/>
<path style="fill:#063E8B;" d="M286,392v26.4c0,27.599-11.4,52.8-30,70.199c-11.4,10.8-25.8,18.3-42.001,21.601
	C208.001,511.399,202,512,196.3,512c-21,0-41.4-7.2-57.599-20.4C118.001,474.2,106,448.999,106,422c0-16.5,13.5-30,30-30
	s30,13.5,30,30s13.5,30,30,30s30-13.5,30-30v-30c0-16.5,13.5-30,30-30S286,375.5,286,392z"/>
<path style="fill:#136EF1;" d="M256,0l136,260.378c10.858-14.172,26.9-22.487,45-22.487c19.424,0,36.738,9.272,47.52,25.43
	c3.756,5.614,10.667,7.922,16.831,6.035C507.679,267.437,512,261.606,512,255C512,114.39,396.61,0,256,0z"/>
<path style="fill:#1689FC;" d="M0,255c0,6.606,4.321,12.437,10.649,14.355c6.343,1.904,13.169-0.542,16.831-6.035
	c10.781-16.157,29.096-25.43,48.52-25.43c18.1,0,34.142,8.315,45,22.487L256,0C115.39,0,0,114.39,0,255z"/>
<path style="fill:#17ACE8;" d="M392,240v20.4c-9.901,13.2-22.2,10.8-27.599,2.999C353.599,247.2,335.501,237.9,316,237.9
	s-36.599,9.3-47.401,25.499c-2.999,4.2-7.8,6.301-12.599,6.301s-9.6-2.1-12.599-6.301C232.599,247.2,215.501,237.9,196,237.9
	s-36.599,9.3-47.401,25.499c-5.4,7.8-17.699,10.201-27.599-2.999V240C121,105.3,180.399,0,256,0S392,105.3,392,240z"/>
<path style="fill:#1689FC;" d="M392,240v20.4c-9.901,13.2-22.2,10.8-27.599,2.999C353.599,247.2,335.501,237.9,316,237.9
	s-36.599,9.3-47.401,25.499c-2.999,4.2-7.8,6.301-12.599,6.301V0C331.601,0,392,105.3,392,240z"/>
<g>
</g>
<g>
</g>
<g>
</g>
<g>
</g>
<g>
</g>
<g>
</g>
<g>
</g>
<g>
</g>
<g>
</g>
<g>
</g>
<g>
</g>
<g>
</g>
<g>
</g>
<g>
</g>
<g>
</g>
</svg>
